<svg xmlns="http://www.w3.org/2000/svg" xmlns:xlink="http://www.w3.org/1999/xlink" viewBox="0 0 426 384.697">
  <defs>
    <path id="a" d="M-85-31.02h595.28v452H-85z"></path>
  </defs>
  <clipPath id="b">
    <use xlink:href="#a" overflow="visible"></use>
  </clipPath>
  <path clip-path="url(#b)" d="M119.466 211.96c.72.23.93 1.018.584 1.84-.475.846-1.34 1.32-2.192 1.105 0 0-.183-.022-.35-.178l-1.014-.38c-.44-.103-.96-.32-1.62-.5l-1.99-.694c-.784-.165-1.56-.464-2.458-.728l-2.762-.865c-.422-.096-.978-.176-1.46-.348-.478-.165-.96-.317-1.508-.396-.49-.164-.957-.32-1.516-.405-.532-.21-1.077-.3-1.566-.454l-3.085-.738c-.314 0-.56-.083-.796-.158-.242-.086-.552-.086-.795-.166-.48-.163-.964-.19-1.454-.353-.956-.32-1.93-.51-2.782-.733l-1.312-.373c-.436-.105-.798-.16-1.224-.27-.352-.188-.725-.238-1.01-.378-.376-.047-.668-.18-1.037-.24l-.478-.158c.028.314.06.503.17.73.098.667.214 1.218.362 1.633l.29 1.133c.114.11.23.223.283.27.62.57 1.182 1.09 1.87 1.587.275.26.564.526.965.77l.837.787c.36.18.636.437.974.75l.84.785c.563.524 1.04 1.13 1.548 1.603.566.525 1.066 1 1.562 1.583.425.547.935 1.015 1.382 1.44.426.55 1.01.94 1.464 1.357l1.28 1.207c.39.358.79.726 1.13 1.045l1.9 1.773c.64.45 1.03.813 1.3 1.07l.457.427c.57.4.458 1.29-.182 1.985-.592.745-1.492.92-2.115.468 0 0-.172-.148-.387-.487l-1.227-1.154c-.436-.543-1.112-1.178-1.836-1.852l-1.12-1.047c-.453-.412-.836-.785-1.29-1.194l-1.46-1.367c-.446-.417-1.02-.817-1.526-1.283-.626-.44-1.126-.92-1.696-1.438-.57-.403-1.132-.922-1.702-1.456l-.84-.786-.89-.825c-.282-.27-.486-.598-.768-.86-.338-.314-.552-.65-.83-.91-.542-.656-1.108-1.18-1.724-1.75l-.893-.843c-.28-.26-.618-.57-.896-.834-1.235-1.153-2.34-2.332-3.514-3.42l-1.738-1.63c-.337-.31-.62-.575-.9-.84l-.837-.787c-2.318-2.013-4.447-3.998-6.318-5.595-1.79-1.667-3.373-3.008-4.376-3.947-1.068-.997-1.765-1.496-1.765-1.496-.496-.474-.376-1.51.268-2.194.647-.696 1.614-.936 2.124-.468l.043.053s.622.573 1.69 1.573c.944 1.002 2.453 2.425 4.177 4.173 1.79 1.668 3.848 3.747 6.082 5.835l.85.774c.278.278.485.618.823.93.56.527 1.12 1.04 1.805 1.536l1.87 1.592c-.09-.233-.14-.41-.235-.652-.095-.787-.355-1.63-.566-2.534l-.66-2.772c-.188-1.047-.448-1.986-.765-3.002-.183-1.045-.5-2.054-.742-3.136-.246-.97-.506-2.044-.816-3.06-.186-1.043-.503-2.05-.704-2.962-.175-1.034-.446-1.986-.64-2.893-.15-.86-.35-1.768-.454-2.566-.144-.85-.3-1.577-.348-2.196l-.288-1.717c-.077-.49-.15-.86-.123-1.104l-.004-.452c.004-.562.524-1.223 1.098-1.396.455-.155.81.03 1.02.373l.156.282c.09.234.17.6.316 1.008.197.46.31 1.015.485 1.613.183.602.402 1.373.556 2.1.22.775.49 1.614.704 2.516l.584 2.853c.27.954.45 1.98.634 3.026l.62 3.158c.245 1.084.354 2.202.608 3.16.193 1.037.432 2.11.57 3.104.256.963.39 1.944.594 2.85l.112.54.127-.018c.26-.056.626.01 1.048.112.556.085 1.098.165 1.766.356.245.072.608.137.9.275.432.105.79.154 1.143.334l1.217.283c.426.104.777.292 1.252.45.855.208 1.808.547 2.72.793l1.434.49c.233.082.468.163.718.236l.714.243c1.013.382 1.987.697 3.064.994l1.446.477c.55.087 1.03.244 1.505.397l1.506.416c.48.164 1.03.248 1.518.396.97.188 1.88.465 2.783.735l2.544.65c.78.163 1.453.342 2.117.534.603.145 1.138.355 1.556.46l1.098.297c.172.035.37.05.37.05l.052.062zM87.818 166.64l.352-.38c.296-.314.577-.614 1.133-1.103.566-.484 1.242-.987 2.244-1.5.47-.28 1.048-.456 1.632-.627.51-.098 1.128-.083 1.705-.142 1.165.095 2.185.473 3.05 1.004 1.002.493 1.938 1.073 2.85 1.785.907.705 1.863 1.47 2.82 2.352.96.894 1.966 1.83 2.976 2.778l3.195 2.975c1.12 1.047 2.332 2.014 3.567 3.038l1.79 1.675c.563.526 1.18 1.1 1.872 1.592l3.753 3.51c.668.627 1.287 1.205 1.89 1.914l.952.882c.337.313.674.63.95 1.018.667.62 1.258 1.334 1.856 2.034.605.707 1.147 1.493 1.745 2.182.525.797 1.112 1.625 1.57 2.49.45.857.967 1.763 1.192 2.986.13.525.176 1.157.088 1.932-.08.64-.235 1.37-.563 2.06-.615 1.445-1.572 2.692-2.448 3.75-.564.488-1.06 1.014-1.62 1.506-.61.43-1.174.92-1.9 1.25-.343.254-.663.377-1.043.46-.4.195-.8.274-1.052.315-.753.146-1.442.086-1.994.01-.598-.14-1.08-.297-1.614-.52-.485-.152-.88-.392-1.347-.674-.828-.478-1.63-1.085-2.365-1.636-1.414-1.173-2.846-2.357-4.186-3.6-1.355-1.143-2.643-2.34-3.93-3.547-2.652-2.332-5.122-4.626-7.482-6.83-2.424-2.108-4.61-4.154-6.69-6.097-2.013-1.875-3.852-3.73-5.298-5.658-.763-.86-1.333-1.83-1.907-2.784-.44-.987-.812-2.06-.925-3.175-.06-.49.018-1.13.078-1.646.134-.59.267-1.18.443-1.6.428-1.027.95-1.82 1.336-2.33.447-.588.752-1.04.957-1.263l.365-.383zm1.9 1.78l-.29.314c-.14.15-.424.448-.646.818-.36.378-.668.812-.865 1.36-.253.61-.384 1.21-.4 1.906.097.675.245 1.525.7 2.39.4.8.987 1.64 1.62 2.526 1.298 1.755 3.054 3.697 5.01 5.658 1.93 1.964 4.052 4.087 6.41 6.27 2.278 2.272 4.747 4.57 7.326 6.982l3.87 3.606c1.353 1.138 2.774 2.31 4.206 3.36.82.468 1.5.967 2.34 1.322.754.408 1.592.76 2.457.85.433-.026.8.03 1.26-.124.122-.02.326-.12.516-.223.13-.02.338-.132.528-.23.74-.458 1.59-1.242 2.372-2.083l.148-.153.074-.08.073-.08.285-.31c.218-.228.303-.435.517-.67.28-.3.58-.74.766-1.155.17-.41.34-.814.387-1.2.1-.207.123-.474.085-.654.02-.252-.015-.43-.057-.613-.01-.89-.42-1.69-.818-2.485-.4-.824-.943-1.455-1.545-2.165-1.087-1.437-2.427-2.69-3.714-3.89-.59-.715-1.21-1.29-1.886-1.916l-1.906-1.78c-1.216-1.272-2.454-2.432-3.685-3.576l-1.795-1.68c-.54-.645-1.16-1.22-1.723-1.746-1.1-1.16-2.156-2.3-3.35-3.26l-3.193-2.98c-1.08-.87-2.03-1.76-3.06-2.574-.964-.76-1.935-1.512-2.863-2.094-.85-.657-1.776-1.235-2.617-1.587-.88-.397-1.67-.552-2.35-.616-.752.03-1.213.17-1.73.403-.482.266-.964.68-1.32 1.063-.337.25-.632.557-.847.793l-.288.305zM154.318 174.707c.573.4.47 1.298-.18 1.994-.513.663-1.406.826-1.98.446l-33.61-29.057.485.726c.83 1.35 1.66 2.705 2.568 3.99l1.31 2.076 6.613 9.765 1.312 2.08 1.322 1.954c.423.682.827 1.357 1.327 1.955l1.252 2.025c.362.636.05 1.633-.648 2.265-.62.448-1.33.637-1.79.346-.7-.364-1.403-.737-2.04-1.177-.714-.37-1.41-.74-2.044-1.19-1.456-.79-2.8-1.614-4.137-2.428-.626-.445-1.325-.807-2.032-1.18-.64-.443-1.33-.814-2.04-1.187-.704-.362-1.34-.812-2.04-1.184l-2.112-1.108c-1.407-.735-2.817-1.48-4.224-2.216l-2.22-1.215 1.1 1.184 4.605 4.714c1.55 1.604 3.18 3.116 4.805 4.636l4.745 4.57 2.35 2.32 2.413 2.254 4.742 4.58 4.82 4.495c.5.47.385 1.373-.258 2.062-.563.623-1.46.792-1.963.32l-9.35-9.302-2.4-2.385-7.02-6.973c-1.57-1.465-3.117-3.07-4.735-4.575l-4.904-4.42c-1.557-1.604-3.172-3.118-4.748-4.578l-2.416-2.257-2.332-2.315c-.503-.473-.324-1.453.323-2.15.57-.61 1.407-.835 1.868-.546l4.09 2.378c1.4.738 2.73 1.55 4.148 2.282l4.137 2.426c1.326.82 2.663 1.637 4.084 2.374l2.1 1.112c.633.455 1.34.818 2.04 1.187l2.114 1.1c.71.373 1.407.75 2.18 1.038l2.418 1.242-.215-.347-1.125-2.052-4.935-8.188-1.178-2.11-1.252-2.027c-.845-1.35-1.675-2.714-2.508-4.063l-2.576-3.973-2.29-3.73-.084-.24-.123-.107c-.32-.43-.13-1.105.365-1.518.49-.416 1.055-.458 1.347-.19l40.526 34.092zM133.237 120.434l.907.844c.525.658 1.366 1.44 2.414 2.556 1.125 1.05 2.472 2.304 3.97 3.843l2.474 2.304c.83.782 1.794 1.68 2.736 2.56l2.973 2.78c1.01.94 2.15 1.856 3.34 2.84l1.62 1.512c.56.515 1.126 1.037 1.82 1.53 1.125 1.045 2.3 2.14 3.453 3.37.563.538 1.105 1.182 1.724 1.753.62.58 1.164 1.23 1.703 1.893 1.09 1.3 2.106 2.68 3.106 4.187.27.4.464.866.68 1.194.26.392.45.866.663 1.206.393.925.766 1.86.956 2.89.123.557.116 1.123.04 1.76-.02.702-.156 1.29-.43 2.035-.264.627-.605 1.32-.982 1.955l-.672.823c-.14.15-.232.37-.302.436l-.27.187-.574.607c-.074.078-.264.18-.41.338-.273.182-.56.48-.885.605-.61.437-1.286.818-1.934 1.068l-1.913.366c-.626-.01-1.126-.037-1.667-.123-2.16-.28-3.732-1.178-5.3-2.068-1.458-.92-2.88-1.97-4.258-2.97-.693-.498-1.375-1.003-1.994-1.574-.633-.444-1.25-1.022-1.945-1.522-2.544-2.096-4.84-4.247-7.107-6.196-2.195-2.033-4.33-3.903-6.237-5.688-3.883-3.477-7.077-6.45-9.265-8.495-2.31-2.017-3.597-3.217-3.597-3.217-.503-.47-.454-1.43.26-2.188.64-.69 1.608-.94 2.17-.416 0 0 1.288 1.197 3.465 3.362l8.97 8.81c1.833 1.865 3.905 3.804 6.03 5.91 2.184 2.035 4.48 4.18 6.897 6.303.626.587 1.312 1.08 1.868 1.6.34.318.696.503.978.758.338.313.68.506 1.01.818 1.337.946 2.783 1.86 4.243 2.66l1.122.595c.418.12.756.3 1.192.394.834.35 1.625.51 2.48.606.806.032 1.702-.133 2.42-.468.39-.074.735-.323 1.087-.59.183-.088.338-.247.478-.402.134-.022.2-.102.268-.17l.506-.542.078-.2c.292-.31.43-.465.583-.623l.683-1.073c.285-.742.447-1.616.352-2.393-.085-.814-.303-1.584-.577-2.418-.21-.346-.345-.755-.56-1.087l-.675-1.07c-1.016-1.382-2.132-2.564-3.29-3.784-.54-.648-1.153-1.232-1.65-1.827-.62-.584-1.233-1.146-1.722-1.748-1.175-1.103-2.276-2.283-3.458-3.375l-1.674-1.572c-.496-.59-1.056-1.12-1.555-1.59-1.058-1.13-2.12-2.118-3.123-3.068-1.07-.99-2.02-1.88-3.05-2.69-.953-.89-1.913-1.78-2.814-2.487-.9-.834-1.688-1.573-2.543-2.22-1.642-1.386-2.986-2.638-4.182-3.61-1.12-1.046-2.03-1.753-2.642-2.33l-.9-.84c-.626-.447-.517-1.472.137-2.172.714-.763 1.688-1.02 2.248-.5l.057.054zM187.915 139.16c.387.364.306 1.01-.197 1.55-.36.38-.93.557-1.298.385l-.23-.09-.115-.106c-.94-.45-1.815-.966-2.83-1.34l-3.054-1.564-1.533-.723-1.597-.76c-.992-.5-1.99-1.003-3.13-1.486l-6.262-2.835c-1.056-.55-2.12-.982-3.13-1.47-.993-.512-2.048-1.068-3.117-1.494l-1.526-.833-1.53-.72c-.996-.617-1.988-1.13-2.972-1.757-1.003-.503-1.988-1.143-2.98-1.64l-1.52-.843-1.54-.718-1.587-.767-1.533-.714 2.167 2.172c.71.813 1.557 1.594 2.264 2.406l2.343 2.322c.763.86 1.554 1.592 2.342 2.323l2.33 2.332 4.81 4.618 4.826 4.504 2.332 2.332 7.225 6.742c.567.52.46 1.43-.186 2.11-.72.774-1.61.943-2.178.422l-2.33-2.333-2.275-2.396-2.336-2.33-2.4-2.363-11.685-11.64-2.413-2.247-2.41-2.255-2.413-2.243-4.872-4.555c-.792-.728-1.506-1.54-2.347-2.325l-2.398-2.248c-.51-.47-.34-1.46.232-2.063.57-.616 1.355-.76 1.89-.546l6.092 3.113 3.053 1.685 1.46.8 1.52.836 1.532.718 1.597.76c.998.502 2.12.984 3.197 1.406 1.006.503 2.068.93 3.127 1.487l1.533.71c.53.22 1.01.504 1.59.764l3.057 1.556c.995.504 1.984 1.142 2.976 1.642l6.03 3.318c1.002.51 1.98 1.13 2.996 1.647l.517.207-32.45-28.705c-.45-.416-.34-1.325.3-2.025.516-.654 1.414-.836 1.994-.43l38.93 35.59.108.105zM202.717 122.272c.51.468.46 1.423-.057 2.09l-.432.463c-.144.16-.285.303-.496.537l-.64.696c-.44.46-1.013 1.073-1.59 1.694-.514.658-1.024 1.323-1.664 2.018-.292.31-.53.657-.82.967-.285.306-.643.69-.865 1.05-.573.617-1.076 1.16-1.453 1.667-.496.54-.81.983-1.087 1.29-.218.228-.38.504-.38.504-.587.75-1.565 1.126-2.194.674-.65-.313-.656-1.332-.118-2.128l.278-.297s.148-.16.43-.456l1.076-1.162c.433-.457.95-1.12 1.52-1.732.288-.306.446-.588.728-.897l-5.21-4.864c-.9-.84-1.85-1.722-2.86-2.665-1.01-.94-1.987-2.023-3.116-3.06-.567-.528-1.116-1.05-1.762-1.497-.563-.52-1.17-1.088-1.8-1.55l-1.965-1.386c-.68-.5-1.314-.95-1.926-1.514-.563-.53-1.12-1.18-1.657-1.83-.485-.603-1.1-1.18-1.664-1.702l-1.948-1.39-.845-.786-.837-.786c-.57-.52-1.07-.996-1.632-1.513-.555-.526-1.058-.994-1.494-1.54l-.728-.673c-.278-.267-.436-.546-.725-.68l-1.403-1.317c-.524-.344-.974-.765-1.44-1.045-.39-.373-.78-.734-1.184-.967-.74-.68-1.425-1.174-1.998-1.582-.56-.52-1.024-.806-1.362-1.116-.09.2-.228.352-.372.5-.218.24-.447.6-.732.902-.215.23-.42.46-.658.82-.425.455-.728.886-.95 1.13-.288.303-.366.516-.366.516-.64.69-1.628 1.062-2.26.616-.585-.39-.585-1.402.076-2.222l.148-.158s.14-.148.36-.376l1.068-1.15c.218-.23.503-.544.71-.762l.796-.848c.58-.622 1.146-1.235 1.716-1.845.647-.7 1.224-1.307 1.664-1.896l.788-.84c.28-.306.447-.59.665-.83.217-.228.368-.51.586-.74.144-.158.232-.357.384-.516.22-.353.358-.508.358-.508.535-.79 1.534-1.296 2.238-.928.647.313.847 1.22.246 2.098-.088.2-.296.433-.514.535l-.418.46c-.127.017-.35.253-.486.4l-.577.618c-.285.308-.503.533-.714.768l-.788.848c-.21.226-.5.54-.714.762l.174.163c.277.26.594.712 1.094 1.173.44.546 1.114 1.178 1.79 1.8.316.447.714.815 1.097 1.18l1.29 1.2c.38.498.828.913 1.278 1.328.282.267.51.474.795.606.282.266.507.47.866.658.57.4 1.076.872 1.628 1.393.507.473 1.15.902 1.717 1.437l.836.78c.275.27.556.518.837.787.556.516 1.042 1.132 1.66 1.705.56.52 1.175 1.1 1.815 1.534.68.503 1.383.876 2.002 1.45.563.52 1.115 1.173 1.675 1.688.538.663 1.03 1.252 1.65 1.836.48.602 1.037 1.12 1.656 1.7.564.52 1.123 1.046 1.77 1.482 1.115 1.057 2.24 1.977 3.26 2.914 1.085.86 2.034 1.74 2.995 2.512 2.423 2.135 4.354 3.77 5.304 4.66l.854-.916c.52-.675 1.027-1.208 1.474-1.806.203-.227.37-.505.524-.663l.485-.53c.232-.362.38-.515.38-.515.644-.69 1.664-.888 2.16-.42M181.344 69.454l-.44.46-.492.534c-.267.177-.408.327-.707.642l-.785.842c-.292.31-.643.69-.932 1.006-.303.43-.668.81-1.013 1.194-.366.382-.725.764-1.094 1.277l.054.055c.274.26.605.7 1.16 1.232.426.54.982 1.194 1.703 1.874.398.36.718.812 1.12 1.18.442.413.773.855 1.212 1.27l1.403 1.315c.274.25.506.468.784.727.225.212.574.4.8.607.572.385 1.138.918 1.638 1.384l1.685 1.567c.278.26.56.526.837.793l.897.84c.56.518 1.048 1.118 1.597 1.766.624.566 1.176 1.1 1.865 1.604.627.44 1.393.86 2.01 1.443.54.647 1.107 1.173 1.645 1.828.55.645 1.045 1.236 1.657 1.815.485.603 1.1 1.178 1.66 1.71l1.74 1.62c1.127 1.046 2.193 2.038 3.325 2.945l2.92 2.72c3.648 3.283 6.13 5.45 6.13 5.45.4.37.308 1.143-.213 1.815-.508.536-1.342.75-1.795.338l-5.84-5.757c-.956-.89-1.917-1.775-2.856-2.79-1.063-.99-2.125-1.993-3.174-3.117l-1.74-1.616c-.56-.524-1.172-1.098-1.81-1.55-.68-.5-1.314-.94-1.93-1.52-.697-.492-1.33-.933-1.942-1.512-.62-.573-1.164-1.234-1.656-1.832-.546-.646-1.094-1.174-1.72-1.745-.61-.58-1.25-1.02-1.802-1.54-.41-.245-.692-.5-.97-.766l-.845-.786c-.56-.533-1.05-1.12-1.603-1.646-.506-.473-1.066-.992-1.505-1.55-.21-.207-.507-.462-.655-.75l-.784-.727c-.454-.426-1.023-.818-1.47-1.242l-1.29-1.2c-.462-.285-.86-.656-1.257-1.013-.79-.605-1.418-1.19-1.994-1.57-.504-.474-.96-.768-1.24-1.028l-1.022 1.195c-.3.434-.655.822-1.017 1.205-.232.366-.584.742-.865 1.052-.535.675-.978 1.26-1.326 1.64-.24.368-.454.59-.454.59-.668.826-1.625 1.07-2.258.633-.57-.4-.57-1.418.16-2.313 0 0 .212-.223.575-.61l1.42-1.523.944-1.01c.277-.298.635-.685 1.005-1.198l2.3-2.454c.303-.436.66-.823 1.09-1.286.363-.388.796-.85 1.09-1.286l1-1.076c.302-.436.59-.74.89-1.175.285-.307.496-.524.732-.9.22-.23.372-.505.52-.665.306-.43.517-.665.517-.665.535-.797 1.516-1.168 2.16-.856.714.377.777 1.302.25 2.104M235.946 87.682c.39.356.313.994-.18 1.54-.365.377-.946.553-1.294.372l-.246-.074-.104-.107c-.937-.456-1.816-.976-2.836-1.347l-3.047-1.564-1.552-.705-1.58-.774c-1.002-.5-2-1-3.13-1.483l-6.268-2.835c-1.057-.545-2.128-.976-3.13-1.477-1-.493-2.055-1.05-3.118-1.485l-1.526-.84-1.538-.71c-.974-.634-1.976-1.137-2.96-1.768-1.004-.502-1.99-1.132-2.98-1.642l-1.527-.833-1.536-.723-1.594-.76-1.527-.71 2.164 2.172c.717.8 1.554 1.58 2.276 2.387l2.328 2.336c.768.86 1.56 1.588 2.34 2.32l2.34 2.332 4.805 4.638 4.822 4.497 2.34 2.31 7.226 6.74c.572.528.452 1.44-.188 2.132-.714.764-1.604.93-2.174.405l-2.334-2.327-2.27-2.396-2.332-2.33-2.402-2.37-11.692-11.628-2.413-2.25-2.407-2.253-2.405-2.246-4.89-4.557c-.774-.726-1.484-1.55-2.328-2.33l-2.41-2.253c-.5-.466-.327-1.442.243-2.063.573-.612 1.343-.75 1.885-.538l6.106 3.107 3.03 1.698 1.464.794 1.523.834 1.534.72 1.597.77c1.006.495 2.136.98 3.2 1.398.997.504 2.07.93 3.125 1.48l1.54.718c.532.208 1.003.5 1.59.774l3.05 1.55c.996.504 1.984 1.127 2.987 1.63l6.02 3.333c1.002.493 1.978 1.132 2.986 1.638l.53.2-32.46-28.69c-.453-.42-.33-1.34.31-2.035.518-.663 1.408-.825 1.985-.442l38.923 35.622.113.1zM250.773 70.775c.506.468.443 1.44-.066 2.098l-.434.46c-.137.16-.285.31-.503.543l-.636.686c-.438.466-1.006 1.076-1.58 1.7-.52.664-1.03 1.316-1.678 2.023-.288.303-.524.658-.81.96-.3.314-.636.685-.872 1.057-.576.61-1.08 1.152-1.44 1.66-.51.537-.814.98-1.092 1.28-.222.233-.376.517-.376.517-.596.742-1.57 1.117-2.21.667-.633-.312-.65-1.32-.115-2.125l.29-.3s.144-.15.425-.453l1.08-1.158c.43-.462.94-1.126 1.525-1.73.278-.315.44-.6.726-.91l-5.213-4.863c-.897-.842-1.854-1.723-2.856-2.666-1.006-.935-1.995-2.02-3.117-3.063-.565-.525-1.122-1.053-1.77-1.482-.552-.53-1.167-1.098-1.807-1.546l-1.946-1.397c-.686-.494-1.32-.954-1.938-1.52-.557-.528-1.11-1.17-1.653-1.825-.485-.6-1.102-1.178-1.664-1.702l-1.95-1.388c-.28-.27-.56-.526-.836-.795l-.837-.783c-.566-.52-1.076-.997-1.632-1.517-.563-.515-1.066-.99-1.5-1.53l-.73-.685c-.285-.253-.433-.54-.728-.668l-1.41-1.317c-.51-.35-.958-.765-1.43-1.052-.386-.355-.787-.728-1.192-.965-.735-.68-1.417-1.18-1.994-1.573-.556-.526-1.02-.814-1.358-1.12-.087.195-.232.34-.372.505-.222.24-.45.587-.735.897-.21.228-.43.457-.66.814-.43.467-.728.907-.95 1.135-.28.303-.36.505-.36.505-.652.7-1.644 1.077-2.263.623-.58-.396-.588-1.402.07-2.217l.15-.154s.14-.15.357-.387l1.07-1.147c.22-.23.505-.536.724-.765l.784-.848c.58-.617 1.15-1.234 1.723-1.84.64-.687 1.218-1.31 1.657-1.888l.795-.85c.275-.31.45-.594.658-.825.215-.22.37-.508.588-.742.14-.158.235-.355.376-.505.228-.362.365-.52.365-.52.534-.8 1.537-1.305 2.244-.934.64.323.85 1.227.234 2.1-.084.207-.298.444-.502.544l-.433.458c-.128.016-.332.24-.48.402l-.576.616c-.278.304-.503.533-.714.77l-.788.84c-.208.223-.503.53-.725.777l.176.16c.28.253.602.7 1.1 1.16.444.547 1.12 1.18 1.795 1.8.32.446.71.814 1.108 1.173l1.287 1.206c.37.498.816.925 1.26 1.34.29.257.51.472.813.598.275.26.507.474.852.653.57.405 1.08.878 1.633 1.386.514.48 1.147.932 1.714 1.45l.84.78c.27.273.553.533.838.786.555.525 1.048 1.127 1.66 1.704.56.52 1.175 1.1 1.808 1.545.696.488 1.394.86 2.013 1.438.562.522 1.11 1.163 1.674 1.69.538.658 1.027 1.263 1.64 1.836.492.6 1.05 1.12 1.663 1.694.56.526 1.126 1.045 1.756 1.502 1.125 1.042 2.266 1.956 3.27 2.9 1.084.853 2.04 1.744 2.998 2.514 2.434 2.123 4.35 3.764 5.3 4.655l.855-.926c.533-.66 1.026-1.2 1.48-1.794.196-.23.37-.497.503-.66l.506-.534c.228-.362.37-.515.37-.515.64-.694 1.667-.893 2.173-.425M198.58 42.76c.077-.08.014-.133.085-.197l.253-.498c.154-.277.33-.68.584-1.173.15-.29.246-.616.415-.9.155-.284.302-.567.415-.9l.805-1.982c.275-.742.49-1.423.736-2.03.214-.677.485-1.305.717-1.786.31-.994.598-1.75.598-1.75.317-.695 1.013-1.203 1.69-1.138.674.05.983.624.713 1.373l-.713 1.772c-.197.542-.384 1.075-.718 1.78-.27.614-.472 1.29-.803 1.97-.204.69-.486 1.426-.74 2.045-.108.327-.217.67-.238.93-.16.273-.194.546-.304.88-.105.456-.235.924-.383 1.2l-2.128 2.05c-.798-.038-1.217-.707-.985-1.646M245.77 132.537l-.048.054-.176.16c-.162.148-.275.376-.605.577-.5.483-1.223 1.17-2.342 1.87-.514.353-1.144.7-1.878 1.044-.665.418-1.52.732-2.427.99-.515.13-.98.21-1.55.272-.56.067-1.086.067-1.732-.048-.573-.043-1.267-.223-1.847-.494-.3-.102-.595-.297-.886-.49-.29-.21-.588-.402-.827-.662-.123-.118-.238-.244-.42-.314l-.54-.574-.127-.25-.292-.307c-.41-.553-.847-1.105-1.206-1.726-.37-.603-.688-1.386-.826-2.09-.203-.76-.17-1.526-.08-2.316.084-.69.3-1.362.556-1.976.323-.663.587-1.27.963-1.862.767-1.1 1.534-2.183 2.368-3.208l2.768-2.983c.937-1.01 2.002-1.89 3.012-2.84.998-.95 2.05-1.957 2.996-2.975.934-1.015 1.816-2.08 2.875-3.083l1.507-1.437c.607-.445 1.12-.927 1.617-1.402 1.05-.897 2.233-1.76 3.295-2.647l3.13-2.61c1.057-.88 2.126-1.766 3.188-2.552l1.636-1.173c.552-.414 1.06-.77 1.613-1.063.563-.412 1.133-.706 1.696-1.008.618-.225 1.24-.588 1.86-.7.702-.166 1.378-.35 2.135-.332.805.074 1.498.25 2.258.612.64.35 1.295.81 1.84 1.268l.658.692c.102.116.235.25.352.37l.296.314c.845 1.004 1.576 2.1 2.026 3.24.183.65.33 1.248.352 1.836.024.573.024 1.14-.066 1.61-.19 1.008-.518 1.904-.992 2.618-.376.705-.767 1.31-1.143 1.794-.768 1.095-1.48 1.778-1.988 2.255l-.725.675-.053.056c-.395.373-1.088.31-1.565-.2-.48-.5-.504-1.202-.12-1.57.053-.054.345-.194.785-.616.435-.542 1.1-1.174 1.885-2.025.38-.49.714-1.04 1.094-1.62.326-.55.64-1.226.787-1.956.148-.744.123-1.552-.204-2.325-.254-.84-.812-1.752-1.474-2.575-.712-.866-1.49-1.68-2.43-2.104-.41-.213-.886-.378-1.402-.372-.51-.096-1.023.033-1.537.165-1.14.236-2.215.774-3.288 1.428-.566.285-1.07.657-1.572 1.02-.573.285-1.08.636-1.568 1.116-1.066.773-2.072 1.612-3.135 2.494-1.003.828-2.01 1.79-3.004 2.74-1.01.944-1.944 1.96-2.95 2.91-.438.54-1 1.074-1.5 1.54-.503.468-.95 1.01-1.497 1.417-1 .962-2.133 1.896-3.174 2.78-1.07.89-2.005 1.904-3.01 2.843-.947 1.015-1.838 2.098-2.772 3.118l-2.652 2.876c-.83 1.015-1.597 1.982-2.308 3.022-.324.43-.66.972-.865 1.54-.113.215-.275.494-.388.718l-.19.79c-.154.504-.2 1.027-.063 1.496.07.512.32 1.01.57 1.488.306.426.662.923.968 1.36l.307.32.597.63c.112 0 .235.128.295.197.714.638 1.646.958 2.445 1.018.348.04.818.082 1.21-.05.396-.032.802-.164 1.136-.255.735-.222 1.425-.62 2.037-.97.573-.29 1.13-.703 1.572-1 .903-.737 1.57-1.37 2.076-1.847.16-.272.326-.43.442-.54.057-.05.057-.05.105-.105.503-.588 1.418-.625 2.002-.11.668.583.753 1.455.25 2.05l-.116-.016zM250.295 152.9c.422.455.443 1.148 0 1.567-.38.368-1.083.313-1.562-.195l-9.634-10.275c-.36-.378-.374-.964.006-1.328l5.137-4.614 2.395-2.158 2.393-2.273c.774-.73 1.563-1.472 2.344-2.22.772-.733 1.547-1.475 2.27-2.26.772-.75 1.497-1.55 2.274-2.29.718-.803 1.555-1.595 2.336-2.338.773-.735 1.618-1.407 2.452-2.076.844-.678 1.685-1.358 2.462-2.09.777-.737 1.558-1.483 2.27-2.283l2.4-2.27c.78-.743 1.556-1.474 2.34-2.21l2.39-2.152c.396-.37.84-.68 1.23-1.04.383-.372.774-.745 1.228-1.055.388-.37.833-.677 1.277-1.092l1.17-1.11c.342-.313.796-.27 1.21.05l.068.063 2.438 2.24c.83.65 1.654 1.42 2.428 2.12l2.49 2.198 1.31 1.027c.365.386.77.71 1.245 1.097.605.515.803 1.402.313 1.996-.384.59-1.298.633-1.96.055l-.12-.13c-.357-.382-.787-.825-1.125-1.203l-1.21-1.15-1.132-1.193-1.186-1.152c-.784-.813-1.55-1.518-2.332-2.336l-1.675-1.652-.604.59c-.392.365-.775.73-1.166 1.1-.34.433-.735.795-1.11 1.17l-1.18 1.106-2.328 2.212-2.396 2.27c-.784.738-1.614 1.412-2.386 2.155-.847.67-1.688 1.35-2.466 2.082-.77.75-1.558 1.483-2.278 2.286-.437.546-.943 1.01-1.442 1.497l.55.674c.118.125.298.317.414.555l.59.626c.377.393.908.845 1.323 1.283.423.445.887.82 1.246 1.203.482.39.838.77 1.14 1.08.71.652 1.13 1.092 1.13 1.092.534.452.612 1.207.165 1.63-.38.484-1.114.468-1.652-.098 0 0-.486-.383-1.077-1.02l-1.08-1.127c-.47-.4-.883-.84-1.305-1.28-.425-.448-.903-.822-1.318-1.264-.236-.138-.425-.335-.6-.52-.228-.128-.406-.32-.64-.462l-.775-.584c-.437.418-.895.837-1.397 1.203l-2.508 2.02c-.78.743-1.61 1.417-2.396 2.154-.847.667-1.688 1.462-2.465 2.194l-2.33 2.216-6.737 6.393 9.142 9.297zM263.64 168.878c-.38.368-.956.318-1.38-.123-.304-.318-.378-.85-.163-1.168l.116-.216.104-.106c.546-.876 1.138-1.693 1.63-2.623l1.853-2.84.872-1.43.925-1.47c.59-.923 1.203-1.852 1.794-2.908l3.47-5.804c.657-.973 1.203-1.965 1.797-2.89.592-.94 1.26-1.91 1.794-2.91l.99-1.412.868-1.42c.71-.92 1.31-1.84 2.03-2.76.594-.93 1.312-1.852 1.91-2.788l.99-1.39.86-1.44.936-1.47.857-1.423-2.282 2.056c-.833.668-1.667 1.454-2.504 2.134l-2.46 2.204c-.89.727-1.677 1.472-2.454 2.21l-2.447 2.215-4.9 4.517-4.784 4.54-2.453 2.2-7.172 6.813c-.56.524-1.37.443-1.91-.12-.595-.636-.63-1.45-.063-1.975l2.452-2.196 2.508-2.143 2.452-2.213 2.504-2.253 12.252-11.033 2.4-2.268 2.397-2.27 2.385-2.26 4.844-4.593c.777-.738 1.63-1.413 2.455-2.208l2.39-2.27c.507-.475 1.37-.338 1.856.165.48.517.486 1.208.227 1.706l-3.708 5.663-1.978 2.834-.92 1.357-.99 1.41-.868 1.422-.93 1.475c-.59.925-1.188 1.977-1.717 2.963-.62.923-1.147 1.917-1.797 2.91l-.88 1.418c-.265.495-.594.924-.933 1.47l-1.843 2.836c-.598.932-1.312 1.843-1.907 2.777l-3.896 5.597c-.595.93-1.312 1.842-1.914 2.77l-.267.496 30.785-30.49c.44-.422 1.253-.357 1.79.2.54.463.562 1.28.124 1.816l-37.98 36.608-.113.1zM315.51 147.474l-.358-.378s-.115-.127-.426-.435c-.116-.232-.234-.36-.48-.616l-.655-.7c-.238-.243-.54-.56-.772-.818-.362-.26-.662-.577-.957-.902-.295-.318-.597-.628-1.01-.946l-.052.054c-.285.26-.73.568-1.287 1.092-.56.405-1.237.93-1.958 1.617-.384.367-.834.68-1.23 1.04-.44.43-.888.73-1.335 1.15l-1.385 1.325c-.277.26-.5.473-.78.734-.23.215-.444.543-.662.748-.45.54-1.002 1.07-1.502 1.54l-1.667 1.582c-.277.26-.565.525-.84.79l-.89.856c-.553.515-1.172.988-1.84 1.496-.616.58-1.168 1.12-1.72 1.754-.5.587-.985 1.298-1.605 1.875-.678.52-1.23 1.05-1.9 1.566-.67.52-1.282.976-1.898 1.555-.618.476-1.23 1.042-1.79 1.584l-1.72 1.623c-1.122 1.064-2.18 2.074-3.162 3.122l-2.9 2.748c-3.492 3.44-5.834 5.77-5.834 5.77-.38.372-1.08.303-1.61-.136-.423-.442-.503-1.207-.06-1.627l6.06-5.518c.954-.9 1.904-1.8 2.967-2.685 1.052-.994 2.103-2.004 3.292-2.99l1.72-1.636c.552-.53 1.17-1.105 1.653-1.7.545-.64 1.052-1.23 1.67-1.82.553-.633 1.052-1.222 1.656-1.804.615-.575 1.283-1.1 1.9-1.574.67-.51 1.22-1.036 1.842-1.618.605-.586 1.104-1.175 1.664-1.7.274-.377.557-.638.827-.898l.847-.797c.55-.524 1.172-1 1.718-1.523.506-.47 1.055-1.004 1.62-1.412.223-.213.5-.473.78-.628l.78-.73c.45-.427.885-.963 1.325-1.382l1.284-1.217c.322-.43.724-.806 1.11-1.173.665-.748 1.284-1.323 1.725-1.854.5-.484.834-.913 1.107-1.173l-.954-.897c-.362-.266-.662-.577-.957-.89-.304-.204-.596-.523-.827-.765-.546-.464-1.018-.85-1.31-1.164-.29-.203-.478-.392-.478-.392-.657-.573-.742-1.44-.25-2.035.44-.537 1.364-.58 2.075.065 0 0 .184.184.48.508l1.187 1.254.788.826c.232.245.542.57.947.88l1.93 2.026c.343.27.642.583 1 .96.296.32.657.696 1.014.967l.84.88c.354.252.602.506.947.766.246.26.415.45.707.643.18.19.42.335.54.466.35.25.54.447.54.447.643.455.85 1.343.464 1.936-.445.664-1.304.745-1.943.288M291.915 198.583c-.334.43-1.076.43-1.558-.08-.412-.323-.486-.845-.335-1.243 0 0 0-.112.112-.32l.155-.284c.045-.168.094-.34.213-.553l.645-1.215c.215-.447.534-.994.857-1.55.33-.538.658-1.203 1.042-1.806.372-.607.75-1.317 1.18-1.966l2.608-4.39c.27-.377.503-.702.707-1.152l.717-1.042c.433-.754.86-1.408 1.3-2.184.424-.656.87-1.308 1.197-1.968l.594-.934c.164-.278.325-.554.487-.823.27-.607.59-1.157.813-1.594.267-.505.54-.876.64-1.223l.28-.366c-.604-.516-1.082-1.022-1.555-1.527l-1.617-1.7c-.492.472-1.05.998-1.667 1.46-.78.74-1.624 1.417-2.466 2.21l-2.388 2.267-6.99 6.993c-.84.786-1.62 1.528-2.332 2.34-.837.782-1.55 1.582-2.275 2.386-.55.523-1.425.498-2.02-.123-.595-.52-.687-1.503-.19-1.98l.115-.104c.842-.672 1.615-1.423 2.51-2.15.772-.736 1.618-1.41 2.458-2.2l4.9-4.416 2.398-2.267c.887-.726 1.66-1.46 2.44-2.203.83-.792 1.566-1.592 2.345-2.32.773-.86 1.548-1.603 2.38-2.4l2.34-2.326 2.385-2.266c.785-.74 1.562-1.483 2.452-2.204.785-.746 1.67-1.465 2.46-2.21l2.388-2.268c.78-.737 1.555-1.59 2.272-2.388.773-.855 1.555-1.6 2.328-2.346.83-.78 1.675-1.462 2.456-2.196l.056-.047c.39-.376.968-.324 1.326-.058.12.123.12.123.243.134l.173.193c.06.058.232.13.35.253.18.19.413.334.597.527.475.387.834.764 1.253 1.195.77.832 1.498 1.704 2.047 2.615.366.503.604.972.857 1.467.313.552.5 1.083.693 1.62.257 1.062.48 2.184.468 3.27-.02 1.105-.273 2.17-.64 3.128-.218.436-.373.946-.648 1.317l-.315.663c-.172.16-.33.443-.437.664-.55.756-1.214 1.505-1.826 2.196l-1.065.996-.992.955c-.728.685-1.396 1.31-2.117 1.896-.777.616-1.506 1.194-2.29 1.698-.78.622-1.632 1.058-2.536 1.556-.907.378-1.928.75-3.082.77-.575.064-1.094.064-1.723-.042-.52-.102-1.112-.267-1.752-.505-.646-.228-1.23-.63-1.82-1.03l-.103.223c-.218.325-.434.778-.768 1.207-.196.445-.594.928-.91 1.47l-.56.88c-.088.336-.324.664-.48.935l-1.128 2.025c-.38.728-.816 1.496-1.242 2.267-.158.387-.316.78-.594 1.16-.158.384-.38.713-.596 1.165l-2.43 4.45c-.373.71-.813 1.377-1.13 2.038l-1.144 1.8c-.322.558-.598 1.052-.864 1.545l-.774 1.075c-.27.265-.432.534-.604.705l-.273.255zm11.608-27.65c.65.697 1.42 1.396 2.142 2.046.76.572 1.544 1.18 2.346 1.474.416.213.824.308 1.226.398.4.09.82.07 1.207.05.805-.045 1.67-.246 2.46-.645.737-.34 1.582-.78 2.312-1.23 1.467-1.025 2.856-2.236 4.246-3.427.34-.313.736-.572 1.077-.89l.996-.95c.66-.635 1.213-1.277 1.71-1.978.555-.765.977-1.538 1.294-2.313.267-.847.517-1.69.478-2.62.032-.865-.115-1.8-.38-2.635-.126-.46-.315-.886-.562-1.264-.25-.476-.48-.847-.795-1.273-.542-.802-1.2-1.497-1.914-2.123-.415-.346-.777-.72-1.132-.984l-.416-.205c-.557.52-1.16 1.105-1.78 1.677-.703.807-1.56 1.486-2.388 2.277l-2.578 2.077c-.778.733-1.615 1.524-2.322 2.33-.784.733-1.615 1.525-2.34 2.337l-2.384 2.266c-.834.8-1.604 1.535-2.386 2.275l-1.67 1.578 1.555 1.75zM344.31 177.296l-.894.848c-.676.515-1.502 1.296-2.68 2.295-1.112 1.054-2.446 2.314-4.06 3.73l-2.453 2.333c-.83.78-1.782 1.684-2.722 2.575l-2.95 2.797c-1 .946-2.002 2.02-3.057 3.134l-1.615 1.534c-.552.524-1.107 1.045-1.652 1.688-1.115 1.06-2.283 2.163-3.57 3.26-.563.534-1.232 1.047-1.844 1.63-.608.58-1.28 1.1-1.955 1.618-1.352 1.034-2.75 1.994-4.265 2.96-.39.26-.86.436-1.188.645-.39.254-.85.45-1.186.646-.907.384-1.812.757-2.775.97-.52.12-1.027.135-1.614.082-.638-.007-1.15-.1-1.8-.33-.517-.222-1.11-.502-1.642-.843l-.654-.585c-.116-.128-.288-.193-.355-.266l-.117-.24-.478-.494c-.06-.076-.123-.248-.254-.376-.115-.234-.357-.494-.424-.792-.304-.54-.557-1.14-.69-1.735l-.062-1.732c.095-.565.187-1.023.348-1.527.56-1.976 1.6-3.435 2.642-4.895 1.048-1.36 2.206-2.693 3.307-3.973.55-.655 1.096-1.296 1.71-1.88.5-.595 1.108-1.168 1.668-1.814 2.272-2.39 4.556-4.557 6.663-6.672 2.164-2.054 4.165-4.076 6.062-5.872 3.714-3.648 6.887-6.646 9.062-8.71 2.174-2.163 3.442-3.385 3.442-3.385.503-.472 1.365-.455 1.97.187.53.558.628 1.432.064 1.965 0 0-1.274 1.215-3.557 3.248l-9.305 8.47c-1.966 1.72-4.026 3.675-6.242 5.667-2.18 2.06-4.462 4.222-6.73 6.492-.612.59-1.164 1.243-1.72 1.763-.327.32-.556.637-.833.902-.342.32-.554.644-.88.963-1.052 1.243-2.097 2.59-3.02 3.944l-.72 1.028c-.158.407-.376.73-.53 1.106-.437.773-.693 1.502-.894 2.283-.15.747-.117 1.56.068 2.208.015.34.204.652.388.956.066.186.19.31.31.442 0 .114.06.172.115.237l.417.442.18.078c.238.24.358.37.475.494l.893.603c.637.225 1.393.357 2.135.24.743-.095 1.48-.318 2.28-.595.334-.194.738-.34 1.066-.542l1.072-.646c1.403-.983 2.648-2.023 3.92-3.11.67-.522 1.278-1.1 1.895-1.574.62-.585 1.228-1.156 1.843-1.62 1.165-1.108 2.4-2.158 3.563-3.265l1.662-1.582c.613-.473 1.17-.992 1.676-1.466 1.178-.996 2.23-1.997 3.238-2.947 1.05-1.002 1.998-1.895 2.882-2.86.942-.89 1.9-1.802 2.662-2.64.89-.85 1.672-1.582 2.4-2.386 1.498-1.55 2.827-2.807 3.886-3.917 1.115-1.062 1.886-1.9 2.497-2.485l.898-.846c.493-.59 1.422-.51 1.95.054.6.62.688 1.49.137 2.033l-.057.05zM322.99 231.038c-.448.526-1.246.452-1.788-.118-.528-.435-.562-1.26-.12-1.792l31.247-31.553-.73.452c-1.34.81-2.697 1.615-3.988 2.483l-2.086 1.246-9.835 6.334-2.085 1.254-1.967 1.27c-.68.41-1.354.808-1.97 1.273l-2.03 1.2c-.625.357-1.483.105-1.98-.525-.295-.533-.39-1.18-.045-1.624.426-.65.862-1.29 1.358-1.89.437-.66.877-1.3 1.373-1.895.932-1.355 1.867-2.61 2.8-3.853.488-.588.925-1.242 1.37-1.908.48-.59.93-1.234 1.365-1.89.44-.64.94-1.236 1.372-1.894l1.31-1.96c.872-1.3 1.744-2.627 2.62-3.923l1.418-2.06-1.225 1.037-4.957 4.35c-1.677 1.457-3.292 2.993-4.91 4.523l-4.85 4.476-2.442 2.205-2.392 2.272-4.854 4.464-4.777 4.537c-.506.473-1.307.398-1.846-.164-.48-.51-.5-1.308 0-1.785l9.804-8.826 2.504-2.262 7.363-6.6c1.558-1.48 3.23-2.95 4.85-4.476l4.717-4.6c1.683-1.47 3.29-2.992 4.852-4.475l2.388-2.273 2.442-2.2c.503-.477 1.382-.335 1.913.223.475.51.562 1.265.235 1.7l-2.744 3.793c-.872 1.305-1.808 2.546-2.673 3.864l-2.804 3.848c-.924 1.233-1.867 2.482-2.732 3.788l-1.314 1.96c-.5.592-.943 1.246-1.372 1.904l-1.306 1.965c-.446.648-.876 1.312-1.253 2.014l-1.48 2.235.335-.2 2.044-1.08 8.167-4.767 2.075-1.13 2.04-1.212c1.357-.796 2.715-1.598 4.056-2.397l4.003-2.477 3.712-2.21.218-.095.12-.098c.457-.304 1.04-.146 1.344.29.3.43.26.957-.02 1.224l-36.838 38.032zM111.724 240.568v.554s-.18.37-.18 1.295c0 .93-.193 2.414-.372 4.09 0 1.66-.18 3.892-.37 6.296 0 1.114 0 2.412-.175 3.708v4.27c-.187 1.482-.187 2.966-.187 4.636v2.416c0 .922.187 1.662.187 2.592 0 1.667.176 3.34.176 5.18v11.137c-.176 1.854-.363 3.718-.363 5.757-.18 1.854-.18 3.9 0 5.738.187 2.048.552 4.086.363 5.945 0 2.032 0 4.08-.176 5.934l-.553 5.933c-.18 1.86-.18 3.904-.18 5.746v16.322c.18 3.34.18 6.506.18 9.464 0 11.872.187 19.854.187 19.854 0 1.278-1.093 2.59-2.557 2.59-1.46 0-2.557-1.116-2.557-2.59l.363-19.854c.185-2.958.185-6.124.185-9.464.183-3.516.183-7.053.36-10.757v-5.567c0-1.842 0-3.887-.177-5.746 0-2.032-.183-3.892-.37-5.933l-.172-2.79h-2.564c-.735.2-1.456.2-2.37.388h-2.74c-.916 0-1.834 0-2.74-.188h-2.924c-1.1-.198-2.012-.198-2.92-.198h-2.93c-1.826.198-3.468.198-4.932.387-.72 0-1.46 0-2.008.173h-.546c-.186 1.126-.186 2.23-.186 3.342-.183 1.858-.36 3.896-.36 5.75-.182 2.043-.182 3.897-.182 5.752 0 2.04.183 3.893.183 5.745 0 3.716.176 7.236.36 10.572 0 3.333.185 6.674.185 9.643l.546 19.662c.19 1.292-.915 2.597-2.37 2.597-1.465 0-2.56-1.11-2.56-2.41v-45.625c-.178-1.864-.178-3.895-.357-5.75l-.555-5.938c-.172-1.86-.172-3.9-.366-5.938 0-1.854.193-3.888.365-5.747.18-2.038.18-4.082 0-5.936 0-1.844-.172-3.89-.366-5.744V282.3c-.187-1.86 0-3.706 0-5.567v-5.19c0-.748.193-1.675.193-2.42v-2.404c0-1.666-.194-3.154-.194-4.643 0-1.48-.187-2.962-.187-4.263-.183-1.3-.183-2.596-.183-3.894-.18-2.408-.366-4.448-.366-6.116-.18-1.68-.36-3.16-.36-4.09l-.182-1.294c-.183-1.85 1.09-3.335 2.923-3.526 1.64-.185 3.29 1.11 3.472 2.783v.557s-.183.56-.183 1.48c0 .93-.18 2.228-.18 3.895 0 1.862-.192 3.902-.192 6.31 0 1.11-.18 2.413-.18 3.895v11.13c.18.924.18 1.666.18 2.6.193 1.66.193 3.337.372 5.19 0 1.668 0 3.525.183 5.377v5.753c0 1.854-.183 3.7-.183 5.744-.18 1.853 0 3.896.183 5.75l.36 3.335c.185 0 .372.192.73.192.55 0 1.288 0 2.01.185 1.463 0 3.105.186 4.93.186h5.85c.912 0 2.006-.186 2.924-.186.908 0 1.826-.185 2.74-.185.908 0 1.816 0 2.74.185.916 0 1.637.186 2.372.186h2.564c0-1.674.173-3.338.36-5.02.358-1.84.358-3.885.182-5.738 0-2.04-.183-3.902-.183-5.94v-5.555c0-1.863 0-3.718.183-5.396 0-1.842 0-3.515.176-5.363 0-.748 0-1.668.19-2.41v-7.052c-.19-1.488-.19-2.968-.19-4.268 0-1.296 0-2.594-.176-3.893 0-2.412-.183-4.45-.183-6.11-.186-1.866-.186-3.162-.186-4.09-.174-.925-.174-1.48-.174-1.48-.19-1.675 1.27-3.157 2.913-3.336 1.824-.2 3.295 1.1 3.474 2.96M153.192 369.09c.18 1.298-.917 2.594-2.374 2.594-1.104.184-2.012-.553-2.38-1.483 0 0-.18-.178-.367-.738l-.172-.752c-.19-.362-.372-.73-.552-1.278l-.918-3.16c-.366-1.11-.725-2.597-1.09-4.085-.37-1.48-.922-3.146-1.28-4.827-.363-1.664-.908-3.514-1.278-5.372l-2.93-11.873c-.18-1.105-.36-2.042-.724-3.15l-.55-2.97c-.54-2.043-.91-3.888-1.46-5.935-.368-1.857-.73-3.706-1.276-5.373l-.548-2.598c-.187-.748-.366-1.49-.55-2.23-.548-1.478-.91-2.964-1.28-4.074-.37-1.3-.548-2.42-.907-3.164l-.19-1.1c-1.646.188-3.103.188-4.566.188h-4.932c0 1.654 0 3.514-.183 5.373 0 2.598-.176 5.186-.176 7.963v7.98l.537 23.922c0 2.788 0 5.39.186 7.982 0 2.777.187 5.373.362 7.974 0 1.86-1.276 3.343-3.098 3.343-1.643.186-3.293-1.303-3.293-2.965v-.378c.183-2.6.183-5.196.37-7.974 0-2.593.186-5.194.186-7.982l.36-15.94v-7.98c.19-2.78.19-5.378.19-7.98 0-2.778-.19-5.366-.19-7.964-.18-2.788-.18-5.373-.18-8.163l-.18-7.976v-7.974c0-2.598 0-5.194.18-7.97 0-2.603.18-5.397.18-7.986v-7.966c0-2.592-.18-5.38-.36-7.98-.186-2.785-.186-5.376-.186-7.975 0-2.786.186-5.382.186-7.97v-.188c0-1.297.908-2.23 1.82-2.412.36 0 .36 0 .55-.188h.55c.18 0 .545-.188.914-.188.545 0 1.09-.185 1.64-.185 1.273-.184 2.377-.184 3.65-.184 2.378 0 4.753.184 6.948.744 1.273.183 2.378.56 3.472.932 1.273.363 2.367.92 3.468 1.48 2.008 1.294 4.013 2.775 5.656 4.63 1.643 1.86 2.93 4.082 3.84 6.315.364 1.106.916 2.223 1.095 3.332l.546 1.667c0 .553.182 1.304.365 1.86.365 2.223.552 4.64.73 6.863V272.463c0 2.412 0 4.636-.178 6.86-.187 2.41-.363 4.636-.735 6.86-.183 2.406-.73 4.64-1.274 7.05-.732 2.223-1.646 4.633-3.292 6.68-.725 1.107-1.464 2.042-2.558 2.967-.91.73-2.005 1.482-3.29 2.218-1.28.75-2.735 1.11-4.195 1.49l.183.557c.18.916.55 2.038.725 3.338.366 1.115.553 2.6.915 4.082l.545 2.408c.377.744.55 1.667.735 2.41l1.467 5.38c.553 1.853 1.098 3.896 1.643 5.93.362.932.72 1.86.915 2.975.358.93.545 1.847.91 2.964l3.286 11.687c.552 1.853.908 3.707 1.463 5.374l1.093 5.013c.366 1.48.73 2.775 1.1 4.08l.543 3.152c0 .925.186 1.666.186 2.223v.928zm-25.393-66.4c2.01 0 4.206-.186 6.218-.37 2.002-.362 4.017-.742 5.653-1.665.915-.374 1.65-.927 2.382-1.48.728-.56 1.274-1.307 1.826-2.05 1.09-1.488 2.005-3.327 2.55-5.366.552-1.867 1.098-4.094 1.47-6.137.54-4.26.725-8.708.908-13.158 0-1.11.186-2.226.186-3.346v-3.336c0-2.225-.186-4.263-.555-6.308-.366-2.22-.91-4.263-1.636-6.117-.917-1.853-1.832-3.713-3.288-5.192-1.284-1.483-2.927-2.782-4.57-3.706-.907-.564-1.825-.93-2.732-1.117-1.105-.37-2.016-.556-3.117-.744-2.012-.37-4.013-.37-6.018-.184-1.105.185-2.195.185-3.114.373l-.913.37v5.933c.186 2.6 0 5.19 0 7.974l-.538 7.98c0 2.6 0 5.375.175 7.967 0 2.59 0 5.384.183 7.985V302.503l4.93.186zM196.483 241.672v2.97c-.176 2.044-.176 4.825-.366 8.53 0 3.708 0 8.165-.18 13.357v27.074c0 3.34.18 6.86.37 10.572v5.385c0 1.85 0 3.702.176 5.75 0 3.706 0 7.6-.176 11.684 0 1.854-.19 3.893-.19 5.93s-.18 4.083-.366 6.12c-.372 4.082-.917 8.158-1.638 12.427-.19 1.113-.552 2.225-.735 3.158-.18 1.108-.545 2.218-.732 3.154-.73 2.224-1.456 4.45-2.553 6.488-.553 1.112-1.277 2.032-2.192 2.967-.918 1.11-1.83 1.854-3.106 2.598-1.094.552-2.374 1.11-3.655 1.48l-1.826.184c-.37 0-.73.184-.915.184l-.55-.185h-1.46c-.182 0-.548-.184-.91-.184-.55-.186-1.284-.186-1.826-.554-1.28-.376-2.56-.928-3.655-1.672l-2.74-2.788c-.73-1.107-1.274-2.032-1.834-3.143-2.188-4.277-2.916-8.533-3.647-12.803-.55-4.072-.916-8.354-1.282-12.427-.19-2.037-.362-4.078-.362-6.12-.18-1.86-.18-3.896-.373-5.935-.362-7.974-.362-15.582-.542-22.81 0-7.23-.178-14.1-.178-20.4-.186-12.612-.186-23.19-.186-30.428-.18-7.408-.18-11.672-.18-11.672 0-1.68 1.28-3.16 3.103-3.16 1.634 0 3.108 1.298 3.108 3.16 0 0 0 4.264-.186 11.672l-.545 30.427c-.183 6.303-.183 13.173-.366 20.4 0 7.23 0 14.837.184 22.632 0 2.038.183 4.072.183 5.927 0 1.115.18 2.044.18 2.972 0 1.11.185 2.035.185 3.15.366 3.898.904 7.97 1.64 11.872l.548 2.964c.366.938.55 1.86.91 2.776.547 2.05 1.285 3.715 2.193 5.387.922 1.486 2.195 2.777 3.468 3.525.557.552 1.282.732 2.01.925.37.188.738.188 1.1.188.18.19.366.19.55.19h1.276l.37-.19h1.452l2.2-.56c1.28-.737 2.556-1.86 3.467-3.34.922-1.477 1.646-3.146 2.367-5.002.194-.935.553-1.853.743-2.786l.54-2.965c.55-4.087.737-7.972.92-12.054.182-2.044.182-4.08.358-5.936 0-2.045 0-4.078.18-5.932 0-3.898.197-7.792.197-11.688v-5.56c.18-1.853.18-3.714.18-5.385.18-3.712.18-7.233.18-10.572 0-3.527 0-6.68-.18-9.828 0-3.154 0-6.305-.18-9.086 0-2.975 0-5.57-.197-8.16-.18-5.193-.18-9.65-.356-13.357 0-3.707-.182-6.488-.182-8.532v-2.97c-.183-1.854 1.273-3.337 2.923-3.337 1.822 0 3.285 1.305 3.285 3.16v.182zM239.598 338.114v5.195l-.19 1.86c-.18 2.41-.537 4.637-.91 7.045-.54 2.416-1.284 4.634-2.37 7.06-.922 2.21-2.375 4.25-4.024 6.11-1.643 2.048-3.838 3.522-6.02 4.64-2.198 1.293-4.75 2.04-7.13 2.41-2.374.185-4.928.364-7.302 0-1.097 0-2.377-.187-3.47-.37-.726-.194-1.286-.38-1.827-.38l-.908-.367-.372-.184h-.55l-.914-.368c-.917-.376-1.455-1.304-1.455-2.23.183-1.297.183-2.595.183-3.893.183-1.3.183-2.588.355-3.895v-4.084l.187-3.89c.183-2.597.183-5.193.372-7.972 0-2.597 0-5.197.18-7.79l.18-7.98v-23.743c0-2.596 0-5.19-.18-7.784l-.18-7.985-.19-3.893-.182-4.07-.187-7.79-.355-15.952-.183-7.788-.19-4.084v-4.074c0-.928.556-1.862 1.467-2.045l.18-.18.365-.186h.37l.91-.373c.542-.19 1.098-.375 1.64-.556l3.468-.562c1.287-.184 2.385-.184 3.662-.184 1.095 0 2.374.184 3.647.368 1.094.188 2.375.558 3.47.934 1.096.373 2.376.92 3.284 1.486 1.104.554 2.2 1.296 3.113 2.033l2.737 2.597c1.644 1.854 2.93 3.895 4.018 6.117.55 1.122.91 2.227 1.284 3.345l.547 1.667c.187.553.366 1.106.542 1.667.544 2.23 1.09 4.46 1.287 6.863.18.556.18 1.113.18 1.67.185.557.185 1.12.185 1.666.178 1.112.178 2.412.178 3.52.188 2.236 0 4.458 0 6.683v1.858c0 .554-.178 1.11-.178 1.663l-.562 3.524c-.36 2.418-1.09 4.636-2.18 6.863-.916 2.228-2.372 4.268-4.022 5.928-1.64 1.862-3.472 3.347-5.66 4.458-1.097.562-2.194 1.117-3.292 1.488 1.463.562 2.74 1.107 4.02 1.852 2.194 1.117 4.204 2.777 5.66 4.823 1.64 2.044 2.92 4.072 3.84 6.31.916 2.404 1.465 4.63 2.01 7.04.552 2.23.915 4.647 1.094 6.86.178 2.418.368 4.648.368 7.054m-31.418-94.77c-.366 0-.725.188-1.098.188.186 2.226.186 4.27.186 6.3l.187 7.98.18 7.795v7.97l.18 7.977v21.137h1.282c1.087 0 2.18-.186 3.28-.186 2.01-.186 4.022-.548 6.035-.926 2.005-.556 4.017-1.298 5.655-2.224 1.83-1.122 3.473-2.23 4.752-3.718 1.276-1.476 2.374-3.143 3.1-4.996l1.094-2.975c.193-.93.37-1.845.552-2.962.187-.93.187-2.04.358-3.152v-3.156l-.54-6.487c0-.94-.177-2.046-.37-3.157 0-.558 0-1.104-.18-1.49 0-.548-.177-1.11-.177-1.656-.372-2.045-.737-4.084-1.283-6.13l-.545-1.48-.37-1.485-1.1-2.968c-.72-1.85-1.638-3.52-2.922-5.195-.542-.743-1.272-1.483-1.82-2.04-.733-.743-1.462-1.294-2.38-1.847-.724-.563-1.643-.93-2.557-1.3-.914-.186-1.82-.56-2.732-.56-.922-.186-2.012-.372-2.923-.186-1.098 0-2.01 0-2.923.185-1.097.187-2.005.374-2.922.743m27.025 94.77c0-2.22-.18-4.446-.362-6.49-.18-2.226-.363-4.45-.92-6.676-.357-2.04-.91-4.08-1.82-6.11-.73-1.864-1.643-3.72-2.92-5.386-1.28-1.482-2.744-2.786-4.565-3.892-1.644-.94-3.655-1.68-5.663-2.04-2.006-.562-4.2-.753-6.392-.753-1.647-.18-3.106-.18-4.75-.18l.18 6.674.187 3.897v4.083l.18 7.784v7.98c.182 2.594.182 5.368.182 7.967v21.892c.18 0 .36.184.555.184l3.1.557c2.013.185 4.017.185 6.025-.176 2.012-.192 4.017-.748 5.663-1.68 1.83-.928 3.47-2.043 4.756-3.52 1.278-1.485 2.372-3.157 3.28-5.01.914-1.862 1.646-3.9 2.004-5.94.556-2.224.92-4.262 1.102-6.48v-1.674l.18-1.673v-3.339zM276.853 366.114c1.288 0 2.375 1.125 2.375 2.596 0 1.312-1.087 2.422-2.55 2.422l-29.59-.186c-1.095 0-2.01-.925-2.01-2.236l.363-16.683.194-7.79V328.47c0-2.592 0-5.192-.193-7.784 0-2.598-.175-5.193-.175-7.79-.188-2.6-.188-5.375-.188-7.976 0-2.602.188-5.192.363-7.795.193-2.592.372-5.188.372-7.78 0-2.606 0-5.203-.18-7.794v-15.765l.18-7.79c0-1.295.18-2.59.18-3.89 0-1.304 0-2.598.18-3.9 0-1.303.19-2.6.19-4.083v-3.893c0-1.108.724-1.855 1.82-2.04h.19l6.934-.552c2.202-.378 4.565-.557 6.765-.75l6.937-.74 3.47-.548c1.09 0 2.205-.193 3.464-.378 1.65-.185 3.287.925 3.477 2.778.37 1.67-.907 3.344-2.74 3.53h-3.835l-3.475.18h-3.46l-3.477.186c-2.378 0-4.57.188-6.943.188l-4.925.184V250.206c.176 1.302.176 2.596.176 3.898v19.657c0 2.6-.176 5.19-.176 7.79-.184 2.592-.366 5.19-.366 7.796 0 2.59 0 5.188.183 7.78.183 1.672.183 3.34.183 5.012l1.822.18c.372 0 .914 0 1.452.187h1.832c1.102 0 2.567-.186 3.845-.186 1.273 0 2.558-.182 3.647-.182 1.277-.182 2.37-.182 3.285-.182 2.02-.188 3.293-.188 3.293-.188 1.456-.19 2.736.922 2.736 2.41.18 1.486-.917 2.782-2.558 2.782 0 0-1.28.187-3.112.187h-3.278c-1.284.177-2.557.177-3.834.177-1.288 0-2.562.197-3.845.197-.543.19-1.084.19-1.634.19-.56.172-1.104.172-1.656.353l-1.998.378c0 1.487 0 2.97-.184 4.456l-.55 7.79c0 2.592-.18 5.192-.18 7.784-.19 2.59-.19 5.384-.19 7.98v30.231l27.395-.566zm-26.115-136.308c.186 0 .186-.18.366-.18l.91-.38c.546-.185 1.284-.55 2.202-.93.55-.178 1.09-.552 1.633-.735.55-.187 1.096-.372 1.66-.738l3.46-1.86c1.273-.748 2.375-1.486 3.47-2.04 1.093-.74 2.194-1.3 3.107-1.67 1.637-1.114 2.913-1.853 2.913-1.853 1.287-.564 2.744-.193 3.48 1.11.74 1.3.357 2.78-.91 3.53l-3.112 1.666c-.91.554-1.832 1.115-3.112 1.666-1.095.56-2.188 1.304-3.46 1.854-1.103.75-2.375 1.487-3.474 2.038-.538.373-1.094.746-1.467 1.12-.545.183-.896.56-1.46.926-.72.555-1.46 1.104-2 1.296l-5.116-.368c-.907-1.49-.556-3.34.908-4.452M324.902 240.568v.554s-.183.37-.183 1.295c0 .93-.185 2.414-.36 4.09 0 1.66-.192 3.892-.376 6.296 0 1.114 0 2.412-.18 3.708v4.27c-.18 1.482-.18 2.966-.18 4.636v2.416c0 .922.18 1.662.18 2.592 0 1.667.18 3.34.18 5.18v11.137c-.18 1.854-.358 3.718-.358 5.757-.18 1.854-.18 3.9 0 5.738.18 2.048.542 4.086.358 5.945 0 2.032 0 4.08-.18 5.934l-.552 5.933c-.18 1.86-.18 3.904-.18 5.746v16.322c.18 3.34.18 6.506.18 9.464 0 11.872.193 19.854.193 19.854 0 1.278-1.104 2.59-2.567 2.59-1.45 0-2.55-1.116-2.55-2.59l.36-19.854c.177-2.958.177-6.124.177-9.464.184-3.516.184-7.053.366-10.757v-5.567c0-1.842 0-3.887-.182-5.746 0-2.032-.184-3.892-.36-5.933l-.182-2.79h-2.554c-.73.2-1.468.2-2.37.388h-2.744c-.915 0-1.836 0-2.744-.188h-2.916c-1.104-.198-2.012-.198-2.923-.198h-2.93c-1.826.198-3.466.198-4.93.387-.728 0-1.463 0-2.004.173h-.555c-.18 1.126-.18 2.23-.18 3.342-.18 1.858-.358 3.896-.358 5.75-.18 2.043-.18 3.897-.18 5.752 0 2.04.18 3.893.18 5.745 0 3.716.18 7.236.357 10.572 0 3.333.18 6.674.18 9.643l.557 19.662c.187 1.292-.914 2.597-2.377 2.597-1.464 0-2.562-1.11-2.562-2.41v-45.625c-.18-1.864-.18-3.895-.357-5.75l-.548-5.938c-.184-1.86-.184-3.9-.37-5.938 0-1.854.187-3.888.37-5.747.175-2.038.175-4.082 0-5.936 0-1.844-.184-3.89-.37-5.744V282.3c-.18-1.86 0-3.706 0-5.567v-5.19c0-.748.187-1.675.187-2.42v-2.404c0-1.666-.187-3.154-.187-4.643 0-1.48-.18-2.962-.18-4.263-.18-1.3-.18-2.596-.18-3.894-.186-2.408-.37-4.448-.37-6.116-.182-1.68-.364-3.16-.364-4.09l-.18-1.294c-.188-1.85 1.096-3.335 2.924-3.526 1.644-.185 3.292 1.11 3.473 2.783v.557s-.18.56-.18 1.48c0 .93-.197 2.228-.197 3.895 0 1.862-.177 3.902-.177 6.31 0 1.11-.192 2.413-.192 3.895v11.13c.193.924.193 1.666.193 2.6.177 1.66.177 3.337.373 5.19 0 1.668 0 3.525.18 5.377v5.753c0 1.854-.18 3.7-.18 5.744-.196 1.853 0 3.896.18 5.75l.358 3.335c.18 0 .37.192.736.192.54 0 1.276 0 2.005.185 1.463 0 3.103.186 4.928.186h5.854c.91 0 2.01-.186 2.916-.186.908 0 1.83-.185 2.744-.185.914 0 1.83 0 2.744.185.903 0 1.643.186 2.37.186h2.554c0-1.674.184-3.338.36-5.02.365-1.84.365-3.885.183-5.738 0-2.04-.184-3.902-.184-5.94v-5.555c0-1.863 0-3.718.184-5.396 0-1.842 0-3.515.183-5.363 0-.748 0-1.668.197-2.41v-7.052c-.197-1.488-.197-2.968-.197-4.268 0-1.296 0-2.594-.183-3.893 0-2.412-.184-4.45-.184-6.11-.176-1.866-.176-3.162-.176-4.09-.183-.925-.183-1.48-.183-1.48-.18-1.675 1.276-3.157 2.934-3.336 1.815-.2 3.282 1.1 3.464 2.96M348.463 237.6h.915c.742 0 1.463 0 2.75.18 1.27.184 2.737.557 4.557 1.48.914.38 1.83 1.116 2.743 1.862.73.742 1.46 1.854 2.19 2.775 1.278 2.225 2.013 4.636 2.375 7.047.542 2.598.92 5.193 1.098 7.98.178 2.776.366 5.74.366 8.905v20.4c0 3.705.188 7.405.37 11.31v5.93c0 1.852 0 3.894.18 5.94v12.424c0 2.224 0 4.27-.18 6.497v3.147c0 1.12 0 2.23-.183 3.34 0 2.227-.188 4.46-.376 6.685-.177 2.214-.554 4.448-.732 6.67-.354 2.225-.72 4.63-1.273 6.868-.546 2.233-1.098 4.634-2.374 7.045-.55 1.11-1.28 2.218-2.374 3.346-.915.917-2.013 1.853-3.29 2.405-2.554 1.296-5.296 1.664-7.667 1.85-1.288-.186-2.562-.186-3.838-.368-1.285-.372-2.563-.553-3.832-1.295-.738-.187-1.28-.562-1.83-1.117-.734-.37-1.28-.927-1.645-1.298-1.097-1.104-1.817-2.41-2.378-3.52-.545-1.3-.914-2.412-1.277-3.708-.358-1.105-.552-2.234-.728-3.533-.366-2.218-.545-4.634-.724-6.858-.18-4.45-.36-8.902-.36-13.356-.193-4.26-.193-8.525-.193-12.797-.183-8.524-.183-16.688-.183-24.48-.187-7.794-.187-15.024-.187-21.883 0-6.68.187-12.986.923-18.73.18-2.783.724-5.383 1.272-7.986.742-2.41 1.64-4.818 2.926-6.858.546-.922 1.46-1.853 2.182-2.597.922-.733 1.833-1.482 2.56-1.847 1.84-.93 3.474-1.307 4.57-1.49 1.284-.184 2.195-.363 2.74-.363h.907zm0 6.298h-.728c-.362 0-1.097 0-1.825.186-.915 0-1.823.186-2.737.748-1.087.554-2.016 1.29-2.927 2.41-.728 1.292-1.64 2.965-2.188 5.197-.55 2.037-.914 4.44-1.28 7.037-.73 5.188-1.094 11.49-1.274 18.177-.188 6.677-.376 13.907-.376 21.702-.176 7.79-.176 15.955-.176 24.48v12.796c.176 4.268.363 8.72.732 12.987.365 2.224.542 4.26 1.094 6.298.366 2.038.907 4.09 1.83 5.756.54.737.91 1.486 1.638 2.033.19.186.55.378.91.563.19.186.557.37.93.552 1.453.56 3.473.748 5.47.748h1.462c.544 0 .91-.188 1.465-.188.725 0 1.646-.188 2.37-.56.726-.367 1.464-.738 2.013-1.3.36-.183.73-.56.91-.927.367-.365.55-.732.726-1.114 1.098-1.475 1.65-3.525 2.19-5.563.557-2.04.736-4.074.916-6.3.552-4.267.552-8.72.552-12.986.18-2.223.18-4.258.18-6.482v-6.313c.187-4.27.187-8.343.187-12.425v-5.938c.186-2.04.186-4.073.186-5.932.177-3.903.366-7.604.177-11.31v-10.577c-.177-3.327-.177-6.484-.362-9.644-.188-2.963-.366-5.94-.735-8.534-.183-2.597-.542-5.193-1.098-7.237-.54-2.22-1.273-3.894-2.008-5.19-.908-1.295-1.637-1.853-2.56-2.41-.913-.372-1.997-.558-2.918-.558-.726-.186-1.468-.186-2.006-.186h-.74zM43.167 384.697h352.42c.02-1.852-.213-3.61-.706-5.172H42.316c.398 1.71.686 3.436.852 5.172"></path>
  <path clip-path="url(#b)" d="M213.586 5.988l209.47 225.926 2.66-2.736L213.587 0 1.458 229.178l2.652 2.736"></path>
  <path clip-path="url(#b)" d="M389.015 384.697V190.554l-2.657 3.42-2.092 184.666M53.557 378.253l-2.1-196.502-2.65-3.644v206.59"></path>
</svg>